<mxfile host="app.diagrams.net" modified="2024-06-29T23:40:47.872Z" agent="Mozilla/5.0 (Macintosh; Intel Mac OS X 10_15_7) AppleWebKit/537.36 (KHTML, like Gecko) Chrome/124.0.0.0 Safari/537.36 OPR/110.0.0.0" version="24.6.4" etag="vCModdknJrBx1-ZaQ0uv" type="github">
  <diagram name="Page-1" id="xcIzdAVD2vecY4Ma11NS">
    <mxGraphModel>
      <root>
        <mxCell id="0" />
        <mxCell id="1" parent="0" />
      </root>
    </mxGraphModel>
  </diagram>
</mxfile>
